<?xml version="1.0" encoding="UTF-8" standalone="no"?>
<!DOCTYPE svg PUBLIC "-//W3C//DTD SVG 1.1//EN"
 "http://www.w3.org/Graphics/SVG/1.1/DTD/svg11.dtd">
<!-- Generated by graphviz version 2.43.0 (0)
 -->
<!-- Title: G Pages: 1 -->
<svg width="1628pt" height="404pt"
 viewBox="0.00 0.00 1628.00 404.00" xmlns="http://www.w3.org/2000/svg" xmlns:xlink="http://www.w3.org/1999/xlink">
<g id="graph0" class="graph" transform="scale(1 1) rotate(0) translate(4 400)">
<title>G</title>
<polygon fill="white" stroke="transparent" points="-4,4 -4,-400 1624,-400 1624,4 -4,4"/>
<!-- 31 -->
<g id="node1" class="node">
<title>31</title>
<ellipse fill="none" stroke="black" cx="1089" cy="-378" rx="27" ry="18"/>
<text text-anchor="middle" x="1089" y="-374.3" font-family="Times,serif" font-size="14.00">31</text>
</g>
<!-- 15 -->
<g id="node2" class="node">
<title>15</title>
<ellipse fill="none" stroke="black" cx="855" cy="-306" rx="27" ry="18"/>
<text text-anchor="middle" x="855" y="-302.3" font-family="Times,serif" font-size="14.00">15</text>
</g>
<!-- 31&#45;&gt;15 -->
<g id="edge1" class="edge">
<title>31&#45;&gt;15</title>
<path fill="none" stroke="black" d="M1064.84,-369.77C1022.98,-357.25 936.86,-331.49 888.99,-317.17"/>
<polygon fill="black" stroke="black" points="889.96,-313.81 879.38,-314.29 887.96,-320.51 889.96,-313.81"/>
</g>
<!-- 39 -->
<g id="node33" class="node">
<title>39</title>
<ellipse fill="none" stroke="black" cx="1197" cy="-306" rx="27" ry="18"/>
<text text-anchor="middle" x="1197" y="-302.3" font-family="Times,serif" font-size="14.00">39</text>
</g>
<!-- 31&#45;&gt;39 -->
<g id="edge32" class="edge">
<title>31&#45;&gt;39</title>
<path fill="none" stroke="black" d="M1107.81,-364.81C1125,-353.67 1150.62,-337.06 1169.99,-324.5"/>
<polygon fill="black" stroke="black" points="1171.92,-327.43 1178.4,-319.05 1168.11,-321.56 1171.92,-327.43"/>
</g>
<!-- 7 -->
<g id="node3" class="node">
<title>7</title>
<ellipse fill="none" stroke="black" cx="423" cy="-234" rx="27" ry="18"/>
<text text-anchor="middle" x="423" y="-230.3" font-family="Times,serif" font-size="14.00">7</text>
</g>
<!-- 15&#45;&gt;7 -->
<g id="edge2" class="edge">
<title>15&#45;&gt;7</title>
<path fill="none" stroke="black" d="M828.95,-300.78C755.05,-288.8 543.96,-254.6 459.03,-240.84"/>
<polygon fill="black" stroke="black" points="459.52,-237.37 449.08,-239.23 458.4,-244.28 459.52,-237.37"/>
</g>
<!-- 23 -->
<g id="node18" class="node">
<title>23</title>
<ellipse fill="none" stroke="black" cx="855" cy="-234" rx="27" ry="18"/>
<text text-anchor="middle" x="855" y="-230.3" font-family="Times,serif" font-size="14.00">23</text>
</g>
<!-- 15&#45;&gt;23 -->
<g id="edge17" class="edge">
<title>15&#45;&gt;23</title>
<path fill="none" stroke="black" d="M855,-287.7C855,-279.98 855,-270.71 855,-262.11"/>
<polygon fill="black" stroke="black" points="858.5,-262.1 855,-252.1 851.5,-262.1 858.5,-262.1"/>
</g>
<!-- 3 -->
<g id="node4" class="node">
<title>3</title>
<ellipse fill="none" stroke="black" cx="207" cy="-162" rx="27" ry="18"/>
<text text-anchor="middle" x="207" y="-158.3" font-family="Times,serif" font-size="14.00">3</text>
</g>
<!-- 7&#45;&gt;3 -->
<g id="edge3" class="edge">
<title>7&#45;&gt;3</title>
<path fill="none" stroke="black" d="M399.06,-225.24C360.44,-212.73 284.28,-188.05 240.36,-173.81"/>
<polygon fill="black" stroke="black" points="241.31,-170.44 230.72,-170.69 239.15,-177.1 241.31,-170.44"/>
</g>
<!-- 11 -->
<g id="node11" class="node">
<title>11</title>
<ellipse fill="none" stroke="black" cx="423" cy="-162" rx="27" ry="18"/>
<text text-anchor="middle" x="423" y="-158.3" font-family="Times,serif" font-size="14.00">11</text>
</g>
<!-- 7&#45;&gt;11 -->
<g id="edge10" class="edge">
<title>7&#45;&gt;11</title>
<path fill="none" stroke="black" d="M423,-215.7C423,-207.98 423,-198.71 423,-190.11"/>
<polygon fill="black" stroke="black" points="426.5,-190.1 423,-180.1 419.5,-190.1 426.5,-190.1"/>
</g>
<!-- 1 -->
<g id="node5" class="node">
<title>1</title>
<ellipse fill="none" stroke="black" cx="99" cy="-90" rx="27" ry="18"/>
<text text-anchor="middle" x="99" y="-86.3" font-family="Times,serif" font-size="14.00">1</text>
</g>
<!-- 3&#45;&gt;1 -->
<g id="edge4" class="edge">
<title>3&#45;&gt;1</title>
<path fill="none" stroke="black" d="M188.19,-148.81C171,-137.67 145.38,-121.06 126.01,-108.5"/>
<polygon fill="black" stroke="black" points="127.89,-105.56 117.6,-103.05 124.08,-111.43 127.89,-105.56"/>
</g>
<!-- 5 -->
<g id="node8" class="node">
<title>5</title>
<ellipse fill="none" stroke="black" cx="207" cy="-90" rx="27" ry="18"/>
<text text-anchor="middle" x="207" y="-86.3" font-family="Times,serif" font-size="14.00">5</text>
</g>
<!-- 3&#45;&gt;5 -->
<g id="edge7" class="edge">
<title>3&#45;&gt;5</title>
<path fill="none" stroke="black" d="M207,-143.7C207,-135.98 207,-126.71 207,-118.11"/>
<polygon fill="black" stroke="black" points="210.5,-118.1 207,-108.1 203.5,-118.1 210.5,-118.1"/>
</g>
<!-- 0 -->
<g id="node6" class="node">
<title>0</title>
<ellipse fill="none" stroke="black" cx="27" cy="-18" rx="27" ry="18"/>
<text text-anchor="middle" x="27" y="-14.3" font-family="Times,serif" font-size="14.00">0</text>
</g>
<!-- 1&#45;&gt;0 -->
<g id="edge5" class="edge">
<title>1&#45;&gt;0</title>
<path fill="none" stroke="black" d="M84.43,-74.83C74.25,-64.94 60.48,-51.55 48.97,-40.36"/>
<polygon fill="black" stroke="black" points="51.41,-37.85 41.8,-33.38 46.53,-42.87 51.41,-37.85"/>
</g>
<!-- 2 -->
<g id="node7" class="node">
<title>2</title>
<ellipse fill="none" stroke="black" cx="99" cy="-18" rx="27" ry="18"/>
<text text-anchor="middle" x="99" y="-14.3" font-family="Times,serif" font-size="14.00">2</text>
</g>
<!-- 1&#45;&gt;2 -->
<g id="edge6" class="edge">
<title>1&#45;&gt;2</title>
<path fill="none" stroke="black" d="M99,-71.7C99,-63.98 99,-54.71 99,-46.11"/>
<polygon fill="black" stroke="black" points="102.5,-46.1 99,-36.1 95.5,-46.1 102.5,-46.1"/>
</g>
<!-- 4 -->
<g id="node9" class="node">
<title>4</title>
<ellipse fill="none" stroke="black" cx="171" cy="-18" rx="27" ry="18"/>
<text text-anchor="middle" x="171" y="-14.3" font-family="Times,serif" font-size="14.00">4</text>
</g>
<!-- 5&#45;&gt;4 -->
<g id="edge8" class="edge">
<title>5&#45;&gt;4</title>
<path fill="none" stroke="black" d="M198.65,-72.76C194.29,-64.28 188.85,-53.71 183.96,-44.2"/>
<polygon fill="black" stroke="black" points="186.99,-42.44 179.3,-35.15 180.77,-45.64 186.99,-42.44"/>
</g>
<!-- 6 -->
<g id="node10" class="node">
<title>6</title>
<ellipse fill="none" stroke="black" cx="243" cy="-18" rx="27" ry="18"/>
<text text-anchor="middle" x="243" y="-14.3" font-family="Times,serif" font-size="14.00">6</text>
</g>
<!-- 5&#45;&gt;6 -->
<g id="edge9" class="edge">
<title>5&#45;&gt;6</title>
<path fill="none" stroke="black" d="M215.35,-72.76C219.71,-64.28 225.15,-53.71 230.04,-44.2"/>
<polygon fill="black" stroke="black" points="233.23,-45.64 234.7,-35.15 227.01,-42.44 233.23,-45.64"/>
</g>
<!-- 9 -->
<g id="node12" class="node">
<title>9</title>
<ellipse fill="none" stroke="black" cx="387" cy="-90" rx="27" ry="18"/>
<text text-anchor="middle" x="387" y="-86.3" font-family="Times,serif" font-size="14.00">9</text>
</g>
<!-- 11&#45;&gt;9 -->
<g id="edge11" class="edge">
<title>11&#45;&gt;9</title>
<path fill="none" stroke="black" d="M414.65,-144.76C410.29,-136.28 404.85,-125.71 399.96,-116.2"/>
<polygon fill="black" stroke="black" points="402.99,-114.44 395.3,-107.15 396.77,-117.64 402.99,-114.44"/>
</g>
<!-- 13 -->
<g id="node15" class="node">
<title>13</title>
<ellipse fill="none" stroke="black" cx="459" cy="-90" rx="27" ry="18"/>
<text text-anchor="middle" x="459" y="-86.3" font-family="Times,serif" font-size="14.00">13</text>
</g>
<!-- 11&#45;&gt;13 -->
<g id="edge14" class="edge">
<title>11&#45;&gt;13</title>
<path fill="none" stroke="black" d="M431.35,-144.76C435.71,-136.28 441.15,-125.71 446.04,-116.2"/>
<polygon fill="black" stroke="black" points="449.23,-117.64 450.7,-107.15 443.01,-114.44 449.23,-117.64"/>
</g>
<!-- 8 -->
<g id="node13" class="node">
<title>8</title>
<ellipse fill="none" stroke="black" cx="315" cy="-18" rx="27" ry="18"/>
<text text-anchor="middle" x="315" y="-14.3" font-family="Times,serif" font-size="14.00">8</text>
</g>
<!-- 9&#45;&gt;8 -->
<g id="edge12" class="edge">
<title>9&#45;&gt;8</title>
<path fill="none" stroke="black" d="M372.43,-74.83C362.25,-64.94 348.48,-51.55 336.97,-40.36"/>
<polygon fill="black" stroke="black" points="339.41,-37.85 329.8,-33.38 334.53,-42.87 339.41,-37.85"/>
</g>
<!-- 10 -->
<g id="node14" class="node">
<title>10</title>
<ellipse fill="none" stroke="black" cx="387" cy="-18" rx="27" ry="18"/>
<text text-anchor="middle" x="387" y="-14.3" font-family="Times,serif" font-size="14.00">10</text>
</g>
<!-- 9&#45;&gt;10 -->
<g id="edge13" class="edge">
<title>9&#45;&gt;10</title>
<path fill="none" stroke="black" d="M387,-71.7C387,-63.98 387,-54.71 387,-46.11"/>
<polygon fill="black" stroke="black" points="390.5,-46.1 387,-36.1 383.5,-46.1 390.5,-46.1"/>
</g>
<!-- 12 -->
<g id="node16" class="node">
<title>12</title>
<ellipse fill="none" stroke="black" cx="459" cy="-18" rx="27" ry="18"/>
<text text-anchor="middle" x="459" y="-14.3" font-family="Times,serif" font-size="14.00">12</text>
</g>
<!-- 13&#45;&gt;12 -->
<g id="edge15" class="edge">
<title>13&#45;&gt;12</title>
<path fill="none" stroke="black" d="M459,-71.7C459,-63.98 459,-54.71 459,-46.11"/>
<polygon fill="black" stroke="black" points="462.5,-46.1 459,-36.1 455.5,-46.1 462.5,-46.1"/>
</g>
<!-- 14 -->
<g id="node17" class="node">
<title>14</title>
<ellipse fill="none" stroke="black" cx="531" cy="-18" rx="27" ry="18"/>
<text text-anchor="middle" x="531" y="-14.3" font-family="Times,serif" font-size="14.00">14</text>
</g>
<!-- 13&#45;&gt;14 -->
<g id="edge16" class="edge">
<title>13&#45;&gt;14</title>
<path fill="none" stroke="black" d="M473.57,-74.83C483.75,-64.94 497.52,-51.55 509.03,-40.36"/>
<polygon fill="black" stroke="black" points="511.47,-42.87 516.2,-33.38 506.59,-37.85 511.47,-42.87"/>
</g>
<!-- 19 -->
<g id="node19" class="node">
<title>19</title>
<ellipse fill="none" stroke="black" cx="783" cy="-162" rx="27" ry="18"/>
<text text-anchor="middle" x="783" y="-158.3" font-family="Times,serif" font-size="14.00">19</text>
</g>
<!-- 23&#45;&gt;19 -->
<g id="edge18" class="edge">
<title>23&#45;&gt;19</title>
<path fill="none" stroke="black" d="M840.43,-218.83C830.25,-208.94 816.48,-195.55 804.97,-184.36"/>
<polygon fill="black" stroke="black" points="807.41,-181.85 797.8,-177.38 802.53,-186.87 807.41,-181.85"/>
</g>
<!-- 27 -->
<g id="node26" class="node">
<title>27</title>
<ellipse fill="none" stroke="black" cx="909" cy="-162" rx="27" ry="18"/>
<text text-anchor="middle" x="909" y="-158.3" font-family="Times,serif" font-size="14.00">27</text>
</g>
<!-- 23&#45;&gt;27 -->
<g id="edge25" class="edge">
<title>23&#45;&gt;27</title>
<path fill="none" stroke="black" d="M866.98,-217.46C873.98,-208.4 882.94,-196.79 890.79,-186.61"/>
<polygon fill="black" stroke="black" points="893.71,-188.55 897.05,-178.49 888.17,-184.27 893.71,-188.55"/>
</g>
<!-- 17 -->
<g id="node20" class="node">
<title>17</title>
<ellipse fill="none" stroke="black" cx="675" cy="-90" rx="27" ry="18"/>
<text text-anchor="middle" x="675" y="-86.3" font-family="Times,serif" font-size="14.00">17</text>
</g>
<!-- 19&#45;&gt;17 -->
<g id="edge19" class="edge">
<title>19&#45;&gt;17</title>
<path fill="none" stroke="black" d="M764.19,-148.81C747,-137.67 721.38,-121.06 702.01,-108.5"/>
<polygon fill="black" stroke="black" points="703.89,-105.56 693.6,-103.05 700.08,-111.43 703.89,-105.56"/>
</g>
<!-- 21 -->
<g id="node23" class="node">
<title>21</title>
<ellipse fill="none" stroke="black" cx="783" cy="-90" rx="27" ry="18"/>
<text text-anchor="middle" x="783" y="-86.3" font-family="Times,serif" font-size="14.00">21</text>
</g>
<!-- 19&#45;&gt;21 -->
<g id="edge22" class="edge">
<title>19&#45;&gt;21</title>
<path fill="none" stroke="black" d="M783,-143.7C783,-135.98 783,-126.71 783,-118.11"/>
<polygon fill="black" stroke="black" points="786.5,-118.1 783,-108.1 779.5,-118.1 786.5,-118.1"/>
</g>
<!-- 16 -->
<g id="node21" class="node">
<title>16</title>
<ellipse fill="none" stroke="black" cx="603" cy="-18" rx="27" ry="18"/>
<text text-anchor="middle" x="603" y="-14.3" font-family="Times,serif" font-size="14.00">16</text>
</g>
<!-- 17&#45;&gt;16 -->
<g id="edge20" class="edge">
<title>17&#45;&gt;16</title>
<path fill="none" stroke="black" d="M660.43,-74.83C650.25,-64.94 636.48,-51.55 624.97,-40.36"/>
<polygon fill="black" stroke="black" points="627.41,-37.85 617.8,-33.38 622.53,-42.87 627.41,-37.85"/>
</g>
<!-- 18 -->
<g id="node22" class="node">
<title>18</title>
<ellipse fill="none" stroke="black" cx="675" cy="-18" rx="27" ry="18"/>
<text text-anchor="middle" x="675" y="-14.3" font-family="Times,serif" font-size="14.00">18</text>
</g>
<!-- 17&#45;&gt;18 -->
<g id="edge21" class="edge">
<title>17&#45;&gt;18</title>
<path fill="none" stroke="black" d="M675,-71.7C675,-63.98 675,-54.71 675,-46.11"/>
<polygon fill="black" stroke="black" points="678.5,-46.1 675,-36.1 671.5,-46.1 678.5,-46.1"/>
</g>
<!-- 20 -->
<g id="node24" class="node">
<title>20</title>
<ellipse fill="none" stroke="black" cx="747" cy="-18" rx="27" ry="18"/>
<text text-anchor="middle" x="747" y="-14.3" font-family="Times,serif" font-size="14.00">20</text>
</g>
<!-- 21&#45;&gt;20 -->
<g id="edge23" class="edge">
<title>21&#45;&gt;20</title>
<path fill="none" stroke="black" d="M774.65,-72.76C770.29,-64.28 764.85,-53.71 759.96,-44.2"/>
<polygon fill="black" stroke="black" points="762.99,-42.44 755.3,-35.15 756.77,-45.64 762.99,-42.44"/>
</g>
<!-- 22 -->
<g id="node25" class="node">
<title>22</title>
<ellipse fill="none" stroke="black" cx="819" cy="-18" rx="27" ry="18"/>
<text text-anchor="middle" x="819" y="-14.3" font-family="Times,serif" font-size="14.00">22</text>
</g>
<!-- 21&#45;&gt;22 -->
<g id="edge24" class="edge">
<title>21&#45;&gt;22</title>
<path fill="none" stroke="black" d="M791.35,-72.76C795.71,-64.28 801.15,-53.71 806.04,-44.2"/>
<polygon fill="black" stroke="black" points="809.23,-45.64 810.7,-35.15 803.01,-42.44 809.23,-45.64"/>
</g>
<!-- 25 -->
<g id="node27" class="node">
<title>25</title>
<ellipse fill="none" stroke="black" cx="909" cy="-90" rx="27" ry="18"/>
<text text-anchor="middle" x="909" y="-86.3" font-family="Times,serif" font-size="14.00">25</text>
</g>
<!-- 27&#45;&gt;25 -->
<g id="edge26" class="edge">
<title>27&#45;&gt;25</title>
<path fill="none" stroke="black" d="M909,-143.7C909,-135.98 909,-126.71 909,-118.11"/>
<polygon fill="black" stroke="black" points="912.5,-118.1 909,-108.1 905.5,-118.1 912.5,-118.1"/>
</g>
<!-- 29 -->
<g id="node30" class="node">
<title>29</title>
<ellipse fill="none" stroke="black" cx="1017" cy="-90" rx="27" ry="18"/>
<text text-anchor="middle" x="1017" y="-86.3" font-family="Times,serif" font-size="14.00">29</text>
</g>
<!-- 27&#45;&gt;29 -->
<g id="edge29" class="edge">
<title>27&#45;&gt;29</title>
<path fill="none" stroke="black" d="M927.81,-148.81C945,-137.67 970.62,-121.06 989.99,-108.5"/>
<polygon fill="black" stroke="black" points="991.92,-111.43 998.4,-103.05 988.11,-105.56 991.92,-111.43"/>
</g>
<!-- 24 -->
<g id="node28" class="node">
<title>24</title>
<ellipse fill="none" stroke="black" cx="891" cy="-18" rx="27" ry="18"/>
<text text-anchor="middle" x="891" y="-14.3" font-family="Times,serif" font-size="14.00">24</text>
</g>
<!-- 25&#45;&gt;24 -->
<g id="edge27" class="edge">
<title>25&#45;&gt;24</title>
<path fill="none" stroke="black" d="M904.64,-72.05C902.61,-64.14 900.14,-54.54 897.86,-45.69"/>
<polygon fill="black" stroke="black" points="901.2,-44.6 895.32,-35.79 894.42,-46.35 901.2,-44.6"/>
</g>
<!-- 26 -->
<g id="node29" class="node">
<title>26</title>
<ellipse fill="none" stroke="black" cx="963" cy="-18" rx="27" ry="18"/>
<text text-anchor="middle" x="963" y="-14.3" font-family="Times,serif" font-size="14.00">26</text>
</g>
<!-- 25&#45;&gt;26 -->
<g id="edge28" class="edge">
<title>25&#45;&gt;26</title>
<path fill="none" stroke="black" d="M920.98,-73.46C927.98,-64.4 936.94,-52.79 944.79,-42.61"/>
<polygon fill="black" stroke="black" points="947.71,-44.55 951.05,-34.49 942.17,-40.27 947.71,-44.55"/>
</g>
<!-- 28 -->
<g id="node31" class="node">
<title>28</title>
<ellipse fill="none" stroke="black" cx="1035" cy="-18" rx="27" ry="18"/>
<text text-anchor="middle" x="1035" y="-14.3" font-family="Times,serif" font-size="14.00">28</text>
</g>
<!-- 29&#45;&gt;28 -->
<g id="edge30" class="edge">
<title>29&#45;&gt;28</title>
<path fill="none" stroke="black" d="M1021.36,-72.05C1023.39,-64.14 1025.86,-54.54 1028.14,-45.69"/>
<polygon fill="black" stroke="black" points="1031.58,-46.35 1030.68,-35.79 1024.8,-44.6 1031.58,-46.35"/>
</g>
<!-- 30 -->
<g id="node32" class="node">
<title>30</title>
<ellipse fill="none" stroke="black" cx="1107" cy="-18" rx="27" ry="18"/>
<text text-anchor="middle" x="1107" y="-14.3" font-family="Times,serif" font-size="14.00">30</text>
</g>
<!-- 29&#45;&gt;30 -->
<g id="edge31" class="edge">
<title>29&#45;&gt;30</title>
<path fill="none" stroke="black" d="M1033.93,-75.83C1047.5,-65.27 1066.76,-50.3 1082.09,-38.37"/>
<polygon fill="black" stroke="black" points="1084.4,-41.01 1090.15,-32.11 1080.11,-35.48 1084.4,-41.01"/>
</g>
<!-- 35 -->
<g id="node34" class="node">
<title>35</title>
<ellipse fill="none" stroke="black" cx="1197" cy="-234" rx="27" ry="18"/>
<text text-anchor="middle" x="1197" y="-230.3" font-family="Times,serif" font-size="14.00">35</text>
</g>
<!-- 39&#45;&gt;35 -->
<g id="edge33" class="edge">
<title>39&#45;&gt;35</title>
<path fill="none" stroke="black" d="M1197,-287.7C1197,-279.98 1197,-270.71 1197,-262.11"/>
<polygon fill="black" stroke="black" points="1200.5,-262.1 1197,-252.1 1193.5,-262.1 1200.5,-262.1"/>
</g>
<!-- 43 -->
<g id="node41" class="node">
<title>43</title>
<ellipse fill="none" stroke="black" cx="1413" cy="-234" rx="27" ry="18"/>
<text text-anchor="middle" x="1413" y="-230.3" font-family="Times,serif" font-size="14.00">43</text>
</g>
<!-- 39&#45;&gt;43 -->
<g id="edge40" class="edge">
<title>39&#45;&gt;43</title>
<path fill="none" stroke="black" d="M1220.94,-297.24C1259.56,-284.73 1335.72,-260.05 1379.64,-245.81"/>
<polygon fill="black" stroke="black" points="1380.85,-249.1 1389.28,-242.69 1378.69,-242.44 1380.85,-249.1"/>
</g>
<!-- 33 -->
<g id="node35" class="node">
<title>33</title>
<ellipse fill="none" stroke="black" cx="1161" cy="-162" rx="27" ry="18"/>
<text text-anchor="middle" x="1161" y="-158.3" font-family="Times,serif" font-size="14.00">33</text>
</g>
<!-- 35&#45;&gt;33 -->
<g id="edge34" class="edge">
<title>35&#45;&gt;33</title>
<path fill="none" stroke="black" d="M1188.65,-216.76C1184.29,-208.28 1178.85,-197.71 1173.96,-188.2"/>
<polygon fill="black" stroke="black" points="1176.99,-186.44 1169.3,-179.15 1170.77,-189.64 1176.99,-186.44"/>
</g>
<!-- 37 -->
<g id="node38" class="node">
<title>37</title>
<ellipse fill="none" stroke="black" cx="1233" cy="-162" rx="27" ry="18"/>
<text text-anchor="middle" x="1233" y="-158.3" font-family="Times,serif" font-size="14.00">37</text>
</g>
<!-- 35&#45;&gt;37 -->
<g id="edge37" class="edge">
<title>35&#45;&gt;37</title>
<path fill="none" stroke="black" d="M1205.35,-216.76C1209.71,-208.28 1215.15,-197.71 1220.04,-188.2"/>
<polygon fill="black" stroke="black" points="1223.23,-189.64 1224.7,-179.15 1217.01,-186.44 1223.23,-189.64"/>
</g>
<!-- 32 -->
<g id="node36" class="node">
<title>32</title>
<ellipse fill="none" stroke="black" cx="1089" cy="-90" rx="27" ry="18"/>
<text text-anchor="middle" x="1089" y="-86.3" font-family="Times,serif" font-size="14.00">32</text>
</g>
<!-- 33&#45;&gt;32 -->
<g id="edge35" class="edge">
<title>33&#45;&gt;32</title>
<path fill="none" stroke="black" d="M1146.43,-146.83C1136.25,-136.94 1122.48,-123.55 1110.97,-112.36"/>
<polygon fill="black" stroke="black" points="1113.41,-109.85 1103.8,-105.38 1108.53,-114.87 1113.41,-109.85"/>
</g>
<!-- 34 -->
<g id="node37" class="node">
<title>34</title>
<ellipse fill="none" stroke="black" cx="1161" cy="-90" rx="27" ry="18"/>
<text text-anchor="middle" x="1161" y="-86.3" font-family="Times,serif" font-size="14.00">34</text>
</g>
<!-- 33&#45;&gt;34 -->
<g id="edge36" class="edge">
<title>33&#45;&gt;34</title>
<path fill="none" stroke="black" d="M1161,-143.7C1161,-135.98 1161,-126.71 1161,-118.11"/>
<polygon fill="black" stroke="black" points="1164.5,-118.1 1161,-108.1 1157.5,-118.1 1164.5,-118.1"/>
</g>
<!-- 36 -->
<g id="node39" class="node">
<title>36</title>
<ellipse fill="none" stroke="black" cx="1233" cy="-90" rx="27" ry="18"/>
<text text-anchor="middle" x="1233" y="-86.3" font-family="Times,serif" font-size="14.00">36</text>
</g>
<!-- 37&#45;&gt;36 -->
<g id="edge38" class="edge">
<title>37&#45;&gt;36</title>
<path fill="none" stroke="black" d="M1233,-143.7C1233,-135.98 1233,-126.71 1233,-118.11"/>
<polygon fill="black" stroke="black" points="1236.5,-118.1 1233,-108.1 1229.5,-118.1 1236.5,-118.1"/>
</g>
<!-- 38 -->
<g id="node40" class="node">
<title>38</title>
<ellipse fill="none" stroke="black" cx="1305" cy="-90" rx="27" ry="18"/>
<text text-anchor="middle" x="1305" y="-86.3" font-family="Times,serif" font-size="14.00">38</text>
</g>
<!-- 37&#45;&gt;38 -->
<g id="edge39" class="edge">
<title>37&#45;&gt;38</title>
<path fill="none" stroke="black" d="M1247.57,-146.83C1257.75,-136.94 1271.52,-123.55 1283.03,-112.36"/>
<polygon fill="black" stroke="black" points="1285.47,-114.87 1290.2,-105.38 1280.59,-109.85 1285.47,-114.87"/>
</g>
<!-- 41 -->
<g id="node42" class="node">
<title>41</title>
<ellipse fill="none" stroke="black" cx="1413" cy="-162" rx="27" ry="18"/>
<text text-anchor="middle" x="1413" y="-158.3" font-family="Times,serif" font-size="14.00">41</text>
</g>
<!-- 43&#45;&gt;41 -->
<g id="edge41" class="edge">
<title>43&#45;&gt;41</title>
<path fill="none" stroke="black" d="M1413,-215.7C1413,-207.98 1413,-198.71 1413,-190.11"/>
<polygon fill="black" stroke="black" points="1416.5,-190.1 1413,-180.1 1409.5,-190.1 1416.5,-190.1"/>
</g>
<!-- 47 -->
<g id="node45" class="node">
<title>47</title>
<ellipse fill="none" stroke="black" cx="1521" cy="-162" rx="27" ry="18"/>
<text text-anchor="middle" x="1521" y="-158.3" font-family="Times,serif" font-size="14.00">47</text>
</g>
<!-- 43&#45;&gt;47 -->
<g id="edge44" class="edge">
<title>43&#45;&gt;47</title>
<path fill="none" stroke="black" d="M1431.81,-220.81C1449,-209.67 1474.62,-193.06 1493.99,-180.5"/>
<polygon fill="black" stroke="black" points="1495.92,-183.43 1502.4,-175.05 1492.11,-177.56 1495.92,-183.43"/>
</g>
<!-- 40 -->
<g id="node43" class="node">
<title>40</title>
<ellipse fill="none" stroke="black" cx="1377" cy="-90" rx="27" ry="18"/>
<text text-anchor="middle" x="1377" y="-86.3" font-family="Times,serif" font-size="14.00">40</text>
</g>
<!-- 41&#45;&gt;40 -->
<g id="edge42" class="edge">
<title>41&#45;&gt;40</title>
<path fill="none" stroke="black" d="M1404.65,-144.76C1400.29,-136.28 1394.85,-125.71 1389.96,-116.2"/>
<polygon fill="black" stroke="black" points="1392.99,-114.44 1385.3,-107.15 1386.77,-117.64 1392.99,-114.44"/>
</g>
<!-- 42 -->
<g id="node44" class="node">
<title>42</title>
<ellipse fill="none" stroke="black" cx="1449" cy="-90" rx="27" ry="18"/>
<text text-anchor="middle" x="1449" y="-86.3" font-family="Times,serif" font-size="14.00">42</text>
</g>
<!-- 41&#45;&gt;42 -->
<g id="edge43" class="edge">
<title>41&#45;&gt;42</title>
<path fill="none" stroke="black" d="M1421.35,-144.76C1425.71,-136.28 1431.15,-125.71 1436.04,-116.2"/>
<polygon fill="black" stroke="black" points="1439.23,-117.64 1440.7,-107.15 1433.01,-114.44 1439.23,-117.64"/>
</g>
<!-- 45 -->
<g id="node46" class="node">
<title>45</title>
<ellipse fill="none" stroke="black" cx="1521" cy="-90" rx="27" ry="18"/>
<text text-anchor="middle" x="1521" y="-86.3" font-family="Times,serif" font-size="14.00">45</text>
</g>
<!-- 47&#45;&gt;45 -->
<g id="edge45" class="edge">
<title>47&#45;&gt;45</title>
<path fill="none" stroke="black" d="M1521,-143.7C1521,-135.98 1521,-126.71 1521,-118.11"/>
<polygon fill="black" stroke="black" points="1524.5,-118.1 1521,-108.1 1517.5,-118.1 1524.5,-118.1"/>
</g>
<!-- 48 -->
<g id="node49" class="node">
<title>48</title>
<ellipse fill="none" stroke="black" cx="1593" cy="-90" rx="27" ry="18"/>
<text text-anchor="middle" x="1593" y="-86.3" font-family="Times,serif" font-size="14.00">48</text>
</g>
<!-- 47&#45;&gt;48 -->
<g id="edge48" class="edge">
<title>47&#45;&gt;48</title>
<path fill="none" stroke="black" d="M1535.57,-146.83C1545.75,-136.94 1559.52,-123.55 1571.03,-112.36"/>
<polygon fill="black" stroke="black" points="1573.47,-114.87 1578.2,-105.38 1568.59,-109.85 1573.47,-114.87"/>
</g>
<!-- 44 -->
<g id="node47" class="node">
<title>44</title>
<ellipse fill="none" stroke="black" cx="1449" cy="-18" rx="27" ry="18"/>
<text text-anchor="middle" x="1449" y="-14.3" font-family="Times,serif" font-size="14.00">44</text>
</g>
<!-- 45&#45;&gt;44 -->
<g id="edge46" class="edge">
<title>45&#45;&gt;44</title>
<path fill="none" stroke="black" d="M1506.43,-74.83C1496.25,-64.94 1482.48,-51.55 1470.97,-40.36"/>
<polygon fill="black" stroke="black" points="1473.41,-37.85 1463.8,-33.38 1468.53,-42.87 1473.41,-37.85"/>
</g>
<!-- 46 -->
<g id="node48" class="node">
<title>46</title>
<ellipse fill="none" stroke="black" cx="1521" cy="-18" rx="27" ry="18"/>
<text text-anchor="middle" x="1521" y="-14.3" font-family="Times,serif" font-size="14.00">46</text>
</g>
<!-- 45&#45;&gt;46 -->
<g id="edge47" class="edge">
<title>45&#45;&gt;46</title>
<path fill="none" stroke="black" d="M1521,-71.7C1521,-63.98 1521,-54.71 1521,-46.11"/>
<polygon fill="black" stroke="black" points="1524.5,-46.1 1521,-36.1 1517.5,-46.1 1524.5,-46.1"/>
</g>
<!-- 49 -->
<g id="node50" class="node">
<title>49</title>
<ellipse fill="none" stroke="black" cx="1593" cy="-18" rx="27" ry="18"/>
<text text-anchor="middle" x="1593" y="-14.3" font-family="Times,serif" font-size="14.00">49</text>
</g>
<!-- 48&#45;&gt;49 -->
<g id="edge49" class="edge">
<title>48&#45;&gt;49</title>
<path fill="none" stroke="black" d="M1593,-71.7C1593,-63.98 1593,-54.71 1593,-46.11"/>
<polygon fill="black" stroke="black" points="1596.5,-46.1 1593,-36.1 1589.5,-46.1 1596.5,-46.1"/>
</g>
</g>
</svg>
