<?xml version="1.0" encoding="UTF-8" standalone="no"?>
<!DOCTYPE svg PUBLIC "-//W3C//DTD SVG 1.1//EN"
 "http://www.w3.org/Graphics/SVG/1.1/DTD/svg11.dtd">
<!-- Generated by graphviz version 2.43.0 (0)
 -->
<!-- Title: G Pages: 1 -->
<svg width="1628pt" height="404pt"
 viewBox="0.00 0.00 1628.00 404.00" xmlns="http://www.w3.org/2000/svg" xmlns:xlink="http://www.w3.org/1999/xlink">
<g id="graph0" class="graph" transform="scale(1 1) rotate(0) translate(4 400)">
<title>G</title>
<polygon fill="white" stroke="transparent" points="-4,4 -4,-400 1624,-400 1624,4 -4,4"/>
<!-- 31 -->
<g id="node1" class="node">
<title>31</title>
<ellipse fill="none" stroke="black" cx="621" cy="-378" rx="27" ry="18"/>
<text text-anchor="middle" x="621" y="-374.3" font-family="Times,serif" font-size="14.00">31</text>
</g>
<!-- 39 -->
<g id="node2" class="node">
<title>39</title>
<ellipse fill="none" stroke="black" cx="423" cy="-306" rx="27" ry="18"/>
<text text-anchor="middle" x="423" y="-302.3" font-family="Times,serif" font-size="14.00">39</text>
</g>
<!-- 31&#45;&gt;39 -->
<g id="edge1" class="edge">
<title>31&#45;&gt;39</title>
<path fill="none" stroke="black" d="M597.51,-368.7C562.38,-356.28 496.02,-332.81 456.03,-318.68"/>
<polygon fill="black" stroke="black" points="457.05,-315.33 446.46,-315.29 454.72,-321.93 457.05,-315.33"/>
</g>
<!-- 15 -->
<g id="node20" class="node">
<title>15</title>
<ellipse fill="none" stroke="black" cx="783" cy="-306" rx="27" ry="18"/>
<text text-anchor="middle" x="783" y="-302.3" font-family="Times,serif" font-size="14.00">15</text>
</g>
<!-- 31&#45;&gt;15 -->
<g id="edge19" class="edge">
<title>31&#45;&gt;15</title>
<path fill="none" stroke="black" d="M643.19,-367.41C671.22,-355.3 719.65,-334.37 751.51,-320.61"/>
<polygon fill="black" stroke="black" points="753.03,-323.76 760.82,-316.58 750.25,-317.34 753.03,-323.76"/>
</g>
<!-- 43 -->
<g id="node3" class="node">
<title>43</title>
<ellipse fill="none" stroke="black" cx="207" cy="-234" rx="27" ry="18"/>
<text text-anchor="middle" x="207" y="-230.3" font-family="Times,serif" font-size="14.00">43</text>
</g>
<!-- 39&#45;&gt;43 -->
<g id="edge2" class="edge">
<title>39&#45;&gt;43</title>
<path fill="none" stroke="black" d="M399.06,-297.24C360.44,-284.73 284.28,-260.05 240.36,-245.81"/>
<polygon fill="black" stroke="black" points="241.31,-242.44 230.72,-242.69 239.15,-249.1 241.31,-242.44"/>
</g>
<!-- 35 -->
<g id="node13" class="node">
<title>35</title>
<ellipse fill="none" stroke="black" cx="423" cy="-234" rx="27" ry="18"/>
<text text-anchor="middle" x="423" y="-230.3" font-family="Times,serif" font-size="14.00">35</text>
</g>
<!-- 39&#45;&gt;35 -->
<g id="edge12" class="edge">
<title>39&#45;&gt;35</title>
<path fill="none" stroke="black" d="M423,-287.7C423,-279.98 423,-270.71 423,-262.11"/>
<polygon fill="black" stroke="black" points="426.5,-262.1 423,-252.1 419.5,-262.1 426.5,-262.1"/>
</g>
<!-- 47 -->
<g id="node4" class="node">
<title>47</title>
<ellipse fill="none" stroke="black" cx="99" cy="-162" rx="27" ry="18"/>
<text text-anchor="middle" x="99" y="-158.3" font-family="Times,serif" font-size="14.00">47</text>
</g>
<!-- 43&#45;&gt;47 -->
<g id="edge3" class="edge">
<title>43&#45;&gt;47</title>
<path fill="none" stroke="black" d="M188.19,-220.81C171,-209.67 145.38,-193.06 126.01,-180.5"/>
<polygon fill="black" stroke="black" points="127.89,-177.56 117.6,-175.05 124.08,-183.43 127.89,-177.56"/>
</g>
<!-- 41 -->
<g id="node10" class="node">
<title>41</title>
<ellipse fill="none" stroke="black" cx="207" cy="-162" rx="27" ry="18"/>
<text text-anchor="middle" x="207" y="-158.3" font-family="Times,serif" font-size="14.00">41</text>
</g>
<!-- 43&#45;&gt;41 -->
<g id="edge9" class="edge">
<title>43&#45;&gt;41</title>
<path fill="none" stroke="black" d="M207,-215.7C207,-207.98 207,-198.71 207,-190.11"/>
<polygon fill="black" stroke="black" points="210.5,-190.1 207,-180.1 203.5,-190.1 210.5,-190.1"/>
</g>
<!-- 48 -->
<g id="node5" class="node">
<title>48</title>
<ellipse fill="none" stroke="black" cx="27" cy="-90" rx="27" ry="18"/>
<text text-anchor="middle" x="27" y="-86.3" font-family="Times,serif" font-size="14.00">48</text>
</g>
<!-- 47&#45;&gt;48 -->
<g id="edge4" class="edge">
<title>47&#45;&gt;48</title>
<path fill="none" stroke="black" d="M84.43,-146.83C74.25,-136.94 60.48,-123.55 48.97,-112.36"/>
<polygon fill="black" stroke="black" points="51.41,-109.85 41.8,-105.38 46.53,-114.87 51.41,-109.85"/>
</g>
<!-- 45 -->
<g id="node7" class="node">
<title>45</title>
<ellipse fill="none" stroke="black" cx="99" cy="-90" rx="27" ry="18"/>
<text text-anchor="middle" x="99" y="-86.3" font-family="Times,serif" font-size="14.00">45</text>
</g>
<!-- 47&#45;&gt;45 -->
<g id="edge6" class="edge">
<title>47&#45;&gt;45</title>
<path fill="none" stroke="black" d="M99,-143.7C99,-135.98 99,-126.71 99,-118.11"/>
<polygon fill="black" stroke="black" points="102.5,-118.1 99,-108.1 95.5,-118.1 102.5,-118.1"/>
</g>
<!-- 49 -->
<g id="node6" class="node">
<title>49</title>
<ellipse fill="none" stroke="black" cx="27" cy="-18" rx="27" ry="18"/>
<text text-anchor="middle" x="27" y="-14.3" font-family="Times,serif" font-size="14.00">49</text>
</g>
<!-- 48&#45;&gt;49 -->
<g id="edge5" class="edge">
<title>48&#45;&gt;49</title>
<path fill="none" stroke="black" d="M27,-71.7C27,-63.98 27,-54.71 27,-46.11"/>
<polygon fill="black" stroke="black" points="30.5,-46.1 27,-36.1 23.5,-46.1 30.5,-46.1"/>
</g>
<!-- 46 -->
<g id="node8" class="node">
<title>46</title>
<ellipse fill="none" stroke="black" cx="99" cy="-18" rx="27" ry="18"/>
<text text-anchor="middle" x="99" y="-14.3" font-family="Times,serif" font-size="14.00">46</text>
</g>
<!-- 45&#45;&gt;46 -->
<g id="edge7" class="edge">
<title>45&#45;&gt;46</title>
<path fill="none" stroke="black" d="M99,-71.7C99,-63.98 99,-54.71 99,-46.11"/>
<polygon fill="black" stroke="black" points="102.5,-46.1 99,-36.1 95.5,-46.1 102.5,-46.1"/>
</g>
<!-- 44 -->
<g id="node9" class="node">
<title>44</title>
<ellipse fill="none" stroke="black" cx="171" cy="-18" rx="27" ry="18"/>
<text text-anchor="middle" x="171" y="-14.3" font-family="Times,serif" font-size="14.00">44</text>
</g>
<!-- 45&#45;&gt;44 -->
<g id="edge8" class="edge">
<title>45&#45;&gt;44</title>
<path fill="none" stroke="black" d="M113.57,-74.83C123.75,-64.94 137.52,-51.55 149.03,-40.36"/>
<polygon fill="black" stroke="black" points="151.47,-42.87 156.2,-33.38 146.59,-37.85 151.47,-42.87"/>
</g>
<!-- 42 -->
<g id="node11" class="node">
<title>42</title>
<ellipse fill="none" stroke="black" cx="171" cy="-90" rx="27" ry="18"/>
<text text-anchor="middle" x="171" y="-86.3" font-family="Times,serif" font-size="14.00">42</text>
</g>
<!-- 41&#45;&gt;42 -->
<g id="edge10" class="edge">
<title>41&#45;&gt;42</title>
<path fill="none" stroke="black" d="M198.65,-144.76C194.29,-136.28 188.85,-125.71 183.96,-116.2"/>
<polygon fill="black" stroke="black" points="186.99,-114.44 179.3,-107.15 180.77,-117.64 186.99,-114.44"/>
</g>
<!-- 40 -->
<g id="node12" class="node">
<title>40</title>
<ellipse fill="none" stroke="black" cx="243" cy="-90" rx="27" ry="18"/>
<text text-anchor="middle" x="243" y="-86.3" font-family="Times,serif" font-size="14.00">40</text>
</g>
<!-- 41&#45;&gt;40 -->
<g id="edge11" class="edge">
<title>41&#45;&gt;40</title>
<path fill="none" stroke="black" d="M215.35,-144.76C219.71,-136.28 225.15,-125.71 230.04,-116.2"/>
<polygon fill="black" stroke="black" points="233.23,-117.64 234.7,-107.15 227.01,-114.44 233.23,-117.64"/>
</g>
<!-- 37 -->
<g id="node14" class="node">
<title>37</title>
<ellipse fill="none" stroke="black" cx="387" cy="-162" rx="27" ry="18"/>
<text text-anchor="middle" x="387" y="-158.3" font-family="Times,serif" font-size="14.00">37</text>
</g>
<!-- 35&#45;&gt;37 -->
<g id="edge13" class="edge">
<title>35&#45;&gt;37</title>
<path fill="none" stroke="black" d="M414.65,-216.76C410.29,-208.28 404.85,-197.71 399.96,-188.2"/>
<polygon fill="black" stroke="black" points="402.99,-186.44 395.3,-179.15 396.77,-189.64 402.99,-186.44"/>
</g>
<!-- 33 -->
<g id="node17" class="node">
<title>33</title>
<ellipse fill="none" stroke="black" cx="459" cy="-162" rx="27" ry="18"/>
<text text-anchor="middle" x="459" y="-158.3" font-family="Times,serif" font-size="14.00">33</text>
</g>
<!-- 35&#45;&gt;33 -->
<g id="edge16" class="edge">
<title>35&#45;&gt;33</title>
<path fill="none" stroke="black" d="M431.35,-216.76C435.71,-208.28 441.15,-197.71 446.04,-188.2"/>
<polygon fill="black" stroke="black" points="449.23,-189.64 450.7,-179.15 443.01,-186.44 449.23,-189.64"/>
</g>
<!-- 38 -->
<g id="node15" class="node">
<title>38</title>
<ellipse fill="none" stroke="black" cx="315" cy="-90" rx="27" ry="18"/>
<text text-anchor="middle" x="315" y="-86.3" font-family="Times,serif" font-size="14.00">38</text>
</g>
<!-- 37&#45;&gt;38 -->
<g id="edge14" class="edge">
<title>37&#45;&gt;38</title>
<path fill="none" stroke="black" d="M372.43,-146.83C362.25,-136.94 348.48,-123.55 336.97,-112.36"/>
<polygon fill="black" stroke="black" points="339.41,-109.85 329.8,-105.38 334.53,-114.87 339.41,-109.85"/>
</g>
<!-- 36 -->
<g id="node16" class="node">
<title>36</title>
<ellipse fill="none" stroke="black" cx="387" cy="-90" rx="27" ry="18"/>
<text text-anchor="middle" x="387" y="-86.3" font-family="Times,serif" font-size="14.00">36</text>
</g>
<!-- 37&#45;&gt;36 -->
<g id="edge15" class="edge">
<title>37&#45;&gt;36</title>
<path fill="none" stroke="black" d="M387,-143.7C387,-135.98 387,-126.71 387,-118.11"/>
<polygon fill="black" stroke="black" points="390.5,-118.1 387,-108.1 383.5,-118.1 390.5,-118.1"/>
</g>
<!-- 34 -->
<g id="node18" class="node">
<title>34</title>
<ellipse fill="none" stroke="black" cx="459" cy="-90" rx="27" ry="18"/>
<text text-anchor="middle" x="459" y="-86.3" font-family="Times,serif" font-size="14.00">34</text>
</g>
<!-- 33&#45;&gt;34 -->
<g id="edge17" class="edge">
<title>33&#45;&gt;34</title>
<path fill="none" stroke="black" d="M459,-143.7C459,-135.98 459,-126.71 459,-118.11"/>
<polygon fill="black" stroke="black" points="462.5,-118.1 459,-108.1 455.5,-118.1 462.5,-118.1"/>
</g>
<!-- 32 -->
<g id="node19" class="node">
<title>32</title>
<ellipse fill="none" stroke="black" cx="531" cy="-90" rx="27" ry="18"/>
<text text-anchor="middle" x="531" y="-86.3" font-family="Times,serif" font-size="14.00">32</text>
</g>
<!-- 33&#45;&gt;32 -->
<g id="edge18" class="edge">
<title>33&#45;&gt;32</title>
<path fill="none" stroke="black" d="M473.57,-146.83C483.75,-136.94 497.52,-123.55 509.03,-112.36"/>
<polygon fill="black" stroke="black" points="511.47,-114.87 516.2,-105.38 506.59,-109.85 511.47,-114.87"/>
</g>
<!-- 23 -->
<g id="node21" class="node">
<title>23</title>
<ellipse fill="none" stroke="black" cx="783" cy="-234" rx="27" ry="18"/>
<text text-anchor="middle" x="783" y="-230.3" font-family="Times,serif" font-size="14.00">23</text>
</g>
<!-- 15&#45;&gt;23 -->
<g id="edge20" class="edge">
<title>15&#45;&gt;23</title>
<path fill="none" stroke="black" d="M783,-287.7C783,-279.98 783,-270.71 783,-262.11"/>
<polygon fill="black" stroke="black" points="786.5,-262.1 783,-252.1 779.5,-262.1 786.5,-262.1"/>
</g>
<!-- 7 -->
<g id="node36" class="node">
<title>7</title>
<ellipse fill="none" stroke="black" cx="1197" cy="-234" rx="27" ry="18"/>
<text text-anchor="middle" x="1197" y="-230.3" font-family="Times,serif" font-size="14.00">7</text>
</g>
<!-- 15&#45;&gt;7 -->
<g id="edge35" class="edge">
<title>15&#45;&gt;7</title>
<path fill="none" stroke="black" d="M808.9,-300.62C880.12,-288.58 1079.09,-254.94 1161.03,-241.08"/>
<polygon fill="black" stroke="black" points="1161.84,-244.5 1171.11,-239.38 1160.67,-237.59 1161.84,-244.5"/>
</g>
<!-- 27 -->
<g id="node22" class="node">
<title>27</title>
<ellipse fill="none" stroke="black" cx="711" cy="-162" rx="27" ry="18"/>
<text text-anchor="middle" x="711" y="-158.3" font-family="Times,serif" font-size="14.00">27</text>
</g>
<!-- 23&#45;&gt;27 -->
<g id="edge21" class="edge">
<title>23&#45;&gt;27</title>
<path fill="none" stroke="black" d="M768.43,-218.83C758.25,-208.94 744.48,-195.55 732.97,-184.36"/>
<polygon fill="black" stroke="black" points="735.41,-181.85 725.8,-177.38 730.53,-186.87 735.41,-181.85"/>
</g>
<!-- 19 -->
<g id="node29" class="node">
<title>19</title>
<ellipse fill="none" stroke="black" cx="819" cy="-162" rx="27" ry="18"/>
<text text-anchor="middle" x="819" y="-158.3" font-family="Times,serif" font-size="14.00">19</text>
</g>
<!-- 23&#45;&gt;19 -->
<g id="edge28" class="edge">
<title>23&#45;&gt;19</title>
<path fill="none" stroke="black" d="M791.35,-216.76C795.71,-208.28 801.15,-197.71 806.04,-188.2"/>
<polygon fill="black" stroke="black" points="809.23,-189.64 810.7,-179.15 803.01,-186.44 809.23,-189.64"/>
</g>
<!-- 29 -->
<g id="node23" class="node">
<title>29</title>
<ellipse fill="none" stroke="black" cx="603" cy="-90" rx="27" ry="18"/>
<text text-anchor="middle" x="603" y="-86.3" font-family="Times,serif" font-size="14.00">29</text>
</g>
<!-- 27&#45;&gt;29 -->
<g id="edge22" class="edge">
<title>27&#45;&gt;29</title>
<path fill="none" stroke="black" d="M692.19,-148.81C675,-137.67 649.38,-121.06 630.01,-108.5"/>
<polygon fill="black" stroke="black" points="631.89,-105.56 621.6,-103.05 628.08,-111.43 631.89,-105.56"/>
</g>
<!-- 25 -->
<g id="node26" class="node">
<title>25</title>
<ellipse fill="none" stroke="black" cx="711" cy="-90" rx="27" ry="18"/>
<text text-anchor="middle" x="711" y="-86.3" font-family="Times,serif" font-size="14.00">25</text>
</g>
<!-- 27&#45;&gt;25 -->
<g id="edge25" class="edge">
<title>27&#45;&gt;25</title>
<path fill="none" stroke="black" d="M711,-143.7C711,-135.98 711,-126.71 711,-118.11"/>
<polygon fill="black" stroke="black" points="714.5,-118.1 711,-108.1 707.5,-118.1 714.5,-118.1"/>
</g>
<!-- 30 -->
<g id="node24" class="node">
<title>30</title>
<ellipse fill="none" stroke="black" cx="513" cy="-18" rx="27" ry="18"/>
<text text-anchor="middle" x="513" y="-14.3" font-family="Times,serif" font-size="14.00">30</text>
</g>
<!-- 29&#45;&gt;30 -->
<g id="edge23" class="edge">
<title>29&#45;&gt;30</title>
<path fill="none" stroke="black" d="M586.07,-75.83C572.5,-65.27 553.24,-50.3 537.91,-38.37"/>
<polygon fill="black" stroke="black" points="539.89,-35.48 529.85,-32.11 535.6,-41.01 539.89,-35.48"/>
</g>
<!-- 28 -->
<g id="node25" class="node">
<title>28</title>
<ellipse fill="none" stroke="black" cx="585" cy="-18" rx="27" ry="18"/>
<text text-anchor="middle" x="585" y="-14.3" font-family="Times,serif" font-size="14.00">28</text>
</g>
<!-- 29&#45;&gt;28 -->
<g id="edge24" class="edge">
<title>29&#45;&gt;28</title>
<path fill="none" stroke="black" d="M598.64,-72.05C596.61,-64.14 594.14,-54.54 591.86,-45.69"/>
<polygon fill="black" stroke="black" points="595.2,-44.6 589.32,-35.79 588.42,-46.35 595.2,-44.6"/>
</g>
<!-- 26 -->
<g id="node27" class="node">
<title>26</title>
<ellipse fill="none" stroke="black" cx="657" cy="-18" rx="27" ry="18"/>
<text text-anchor="middle" x="657" y="-14.3" font-family="Times,serif" font-size="14.00">26</text>
</g>
<!-- 25&#45;&gt;26 -->
<g id="edge26" class="edge">
<title>25&#45;&gt;26</title>
<path fill="none" stroke="black" d="M699.02,-73.46C692.02,-64.4 683.06,-52.79 675.21,-42.61"/>
<polygon fill="black" stroke="black" points="677.83,-40.27 668.95,-34.49 672.29,-44.55 677.83,-40.27"/>
</g>
<!-- 24 -->
<g id="node28" class="node">
<title>24</title>
<ellipse fill="none" stroke="black" cx="729" cy="-18" rx="27" ry="18"/>
<text text-anchor="middle" x="729" y="-14.3" font-family="Times,serif" font-size="14.00">24</text>
</g>
<!-- 25&#45;&gt;24 -->
<g id="edge27" class="edge">
<title>25&#45;&gt;24</title>
<path fill="none" stroke="black" d="M715.36,-72.05C717.39,-64.14 719.86,-54.54 722.14,-45.69"/>
<polygon fill="black" stroke="black" points="725.58,-46.35 724.68,-35.79 718.8,-44.6 725.58,-46.35"/>
</g>
<!-- 21 -->
<g id="node30" class="node">
<title>21</title>
<ellipse fill="none" stroke="black" cx="819" cy="-90" rx="27" ry="18"/>
<text text-anchor="middle" x="819" y="-86.3" font-family="Times,serif" font-size="14.00">21</text>
</g>
<!-- 19&#45;&gt;21 -->
<g id="edge29" class="edge">
<title>19&#45;&gt;21</title>
<path fill="none" stroke="black" d="M819,-143.7C819,-135.98 819,-126.71 819,-118.11"/>
<polygon fill="black" stroke="black" points="822.5,-118.1 819,-108.1 815.5,-118.1 822.5,-118.1"/>
</g>
<!-- 17 -->
<g id="node33" class="node">
<title>17</title>
<ellipse fill="none" stroke="black" cx="945" cy="-90" rx="27" ry="18"/>
<text text-anchor="middle" x="945" y="-86.3" font-family="Times,serif" font-size="14.00">17</text>
</g>
<!-- 19&#45;&gt;17 -->
<g id="edge32" class="edge">
<title>19&#45;&gt;17</title>
<path fill="none" stroke="black" d="M839.24,-149.75C860,-138.22 892.48,-120.18 915.98,-107.12"/>
<polygon fill="black" stroke="black" points="917.76,-110.13 924.81,-102.22 914.36,-104.02 917.76,-110.13"/>
</g>
<!-- 22 -->
<g id="node31" class="node">
<title>22</title>
<ellipse fill="none" stroke="black" cx="801" cy="-18" rx="27" ry="18"/>
<text text-anchor="middle" x="801" y="-14.3" font-family="Times,serif" font-size="14.00">22</text>
</g>
<!-- 21&#45;&gt;22 -->
<g id="edge30" class="edge">
<title>21&#45;&gt;22</title>
<path fill="none" stroke="black" d="M814.64,-72.05C812.61,-64.14 810.14,-54.54 807.86,-45.69"/>
<polygon fill="black" stroke="black" points="811.2,-44.6 805.32,-35.79 804.42,-46.35 811.2,-44.6"/>
</g>
<!-- 20 -->
<g id="node32" class="node">
<title>20</title>
<ellipse fill="none" stroke="black" cx="873" cy="-18" rx="27" ry="18"/>
<text text-anchor="middle" x="873" y="-14.3" font-family="Times,serif" font-size="14.00">20</text>
</g>
<!-- 21&#45;&gt;20 -->
<g id="edge31" class="edge">
<title>21&#45;&gt;20</title>
<path fill="none" stroke="black" d="M830.98,-73.46C837.98,-64.4 846.94,-52.79 854.79,-42.61"/>
<polygon fill="black" stroke="black" points="857.71,-44.55 861.05,-34.49 852.17,-40.27 857.71,-44.55"/>
</g>
<!-- 18 -->
<g id="node34" class="node">
<title>18</title>
<ellipse fill="none" stroke="black" cx="945" cy="-18" rx="27" ry="18"/>
<text text-anchor="middle" x="945" y="-14.3" font-family="Times,serif" font-size="14.00">18</text>
</g>
<!-- 17&#45;&gt;18 -->
<g id="edge33" class="edge">
<title>17&#45;&gt;18</title>
<path fill="none" stroke="black" d="M945,-71.7C945,-63.98 945,-54.71 945,-46.11"/>
<polygon fill="black" stroke="black" points="948.5,-46.1 945,-36.1 941.5,-46.1 948.5,-46.1"/>
</g>
<!-- 16 -->
<g id="node35" class="node">
<title>16</title>
<ellipse fill="none" stroke="black" cx="1017" cy="-18" rx="27" ry="18"/>
<text text-anchor="middle" x="1017" y="-14.3" font-family="Times,serif" font-size="14.00">16</text>
</g>
<!-- 17&#45;&gt;16 -->
<g id="edge34" class="edge">
<title>17&#45;&gt;16</title>
<path fill="none" stroke="black" d="M959.57,-74.83C969.75,-64.94 983.52,-51.55 995.03,-40.36"/>
<polygon fill="black" stroke="black" points="997.47,-42.87 1002.2,-33.38 992.59,-37.85 997.47,-42.87"/>
</g>
<!-- 11 -->
<g id="node37" class="node">
<title>11</title>
<ellipse fill="none" stroke="black" cx="1197" cy="-162" rx="27" ry="18"/>
<text text-anchor="middle" x="1197" y="-158.3" font-family="Times,serif" font-size="14.00">11</text>
</g>
<!-- 7&#45;&gt;11 -->
<g id="edge36" class="edge">
<title>7&#45;&gt;11</title>
<path fill="none" stroke="black" d="M1197,-215.7C1197,-207.98 1197,-198.71 1197,-190.11"/>
<polygon fill="black" stroke="black" points="1200.5,-190.1 1197,-180.1 1193.5,-190.1 1200.5,-190.1"/>
</g>
<!-- 3 -->
<g id="node44" class="node">
<title>3</title>
<ellipse fill="none" stroke="black" cx="1413" cy="-162" rx="27" ry="18"/>
<text text-anchor="middle" x="1413" y="-158.3" font-family="Times,serif" font-size="14.00">3</text>
</g>
<!-- 7&#45;&gt;3 -->
<g id="edge43" class="edge">
<title>7&#45;&gt;3</title>
<path fill="none" stroke="black" d="M1220.94,-225.24C1259.56,-212.73 1335.72,-188.05 1379.64,-173.81"/>
<polygon fill="black" stroke="black" points="1380.85,-177.1 1389.28,-170.69 1378.69,-170.44 1380.85,-177.1"/>
</g>
<!-- 13 -->
<g id="node38" class="node">
<title>13</title>
<ellipse fill="none" stroke="black" cx="1161" cy="-90" rx="27" ry="18"/>
<text text-anchor="middle" x="1161" y="-86.3" font-family="Times,serif" font-size="14.00">13</text>
</g>
<!-- 11&#45;&gt;13 -->
<g id="edge37" class="edge">
<title>11&#45;&gt;13</title>
<path fill="none" stroke="black" d="M1188.65,-144.76C1184.29,-136.28 1178.85,-125.71 1173.96,-116.2"/>
<polygon fill="black" stroke="black" points="1176.99,-114.44 1169.3,-107.15 1170.77,-117.64 1176.99,-114.44"/>
</g>
<!-- 9 -->
<g id="node41" class="node">
<title>9</title>
<ellipse fill="none" stroke="black" cx="1233" cy="-90" rx="27" ry="18"/>
<text text-anchor="middle" x="1233" y="-86.3" font-family="Times,serif" font-size="14.00">9</text>
</g>
<!-- 11&#45;&gt;9 -->
<g id="edge40" class="edge">
<title>11&#45;&gt;9</title>
<path fill="none" stroke="black" d="M1205.35,-144.76C1209.71,-136.28 1215.15,-125.71 1220.04,-116.2"/>
<polygon fill="black" stroke="black" points="1223.23,-117.64 1224.7,-107.15 1217.01,-114.44 1223.23,-117.64"/>
</g>
<!-- 14 -->
<g id="node39" class="node">
<title>14</title>
<ellipse fill="none" stroke="black" cx="1089" cy="-18" rx="27" ry="18"/>
<text text-anchor="middle" x="1089" y="-14.3" font-family="Times,serif" font-size="14.00">14</text>
</g>
<!-- 13&#45;&gt;14 -->
<g id="edge38" class="edge">
<title>13&#45;&gt;14</title>
<path fill="none" stroke="black" d="M1146.43,-74.83C1136.25,-64.94 1122.48,-51.55 1110.97,-40.36"/>
<polygon fill="black" stroke="black" points="1113.41,-37.85 1103.8,-33.38 1108.53,-42.87 1113.41,-37.85"/>
</g>
<!-- 12 -->
<g id="node40" class="node">
<title>12</title>
<ellipse fill="none" stroke="black" cx="1161" cy="-18" rx="27" ry="18"/>
<text text-anchor="middle" x="1161" y="-14.3" font-family="Times,serif" font-size="14.00">12</text>
</g>
<!-- 13&#45;&gt;12 -->
<g id="edge39" class="edge">
<title>13&#45;&gt;12</title>
<path fill="none" stroke="black" d="M1161,-71.7C1161,-63.98 1161,-54.71 1161,-46.11"/>
<polygon fill="black" stroke="black" points="1164.5,-46.1 1161,-36.1 1157.5,-46.1 1164.5,-46.1"/>
</g>
<!-- 10 -->
<g id="node42" class="node">
<title>10</title>
<ellipse fill="none" stroke="black" cx="1233" cy="-18" rx="27" ry="18"/>
<text text-anchor="middle" x="1233" y="-14.3" font-family="Times,serif" font-size="14.00">10</text>
</g>
<!-- 9&#45;&gt;10 -->
<g id="edge41" class="edge">
<title>9&#45;&gt;10</title>
<path fill="none" stroke="black" d="M1233,-71.7C1233,-63.98 1233,-54.71 1233,-46.11"/>
<polygon fill="black" stroke="black" points="1236.5,-46.1 1233,-36.1 1229.5,-46.1 1236.5,-46.1"/>
</g>
<!-- 8 -->
<g id="node43" class="node">
<title>8</title>
<ellipse fill="none" stroke="black" cx="1305" cy="-18" rx="27" ry="18"/>
<text text-anchor="middle" x="1305" y="-14.3" font-family="Times,serif" font-size="14.00">8</text>
</g>
<!-- 9&#45;&gt;8 -->
<g id="edge42" class="edge">
<title>9&#45;&gt;8</title>
<path fill="none" stroke="black" d="M1247.57,-74.83C1257.75,-64.94 1271.52,-51.55 1283.03,-40.36"/>
<polygon fill="black" stroke="black" points="1285.47,-42.87 1290.2,-33.38 1280.59,-37.85 1285.47,-42.87"/>
</g>
<!-- 5 -->
<g id="node45" class="node">
<title>5</title>
<ellipse fill="none" stroke="black" cx="1413" cy="-90" rx="27" ry="18"/>
<text text-anchor="middle" x="1413" y="-86.3" font-family="Times,serif" font-size="14.00">5</text>
</g>
<!-- 3&#45;&gt;5 -->
<g id="edge44" class="edge">
<title>3&#45;&gt;5</title>
<path fill="none" stroke="black" d="M1413,-143.7C1413,-135.98 1413,-126.71 1413,-118.11"/>
<polygon fill="black" stroke="black" points="1416.5,-118.1 1413,-108.1 1409.5,-118.1 1416.5,-118.1"/>
</g>
<!-- 1 -->
<g id="node48" class="node">
<title>1</title>
<ellipse fill="none" stroke="black" cx="1521" cy="-90" rx="27" ry="18"/>
<text text-anchor="middle" x="1521" y="-86.3" font-family="Times,serif" font-size="14.00">1</text>
</g>
<!-- 3&#45;&gt;1 -->
<g id="edge47" class="edge">
<title>3&#45;&gt;1</title>
<path fill="none" stroke="black" d="M1431.81,-148.81C1449,-137.67 1474.62,-121.06 1493.99,-108.5"/>
<polygon fill="black" stroke="black" points="1495.92,-111.43 1502.4,-103.05 1492.11,-105.56 1495.92,-111.43"/>
</g>
<!-- 6 -->
<g id="node46" class="node">
<title>6</title>
<ellipse fill="none" stroke="black" cx="1377" cy="-18" rx="27" ry="18"/>
<text text-anchor="middle" x="1377" y="-14.3" font-family="Times,serif" font-size="14.00">6</text>
</g>
<!-- 5&#45;&gt;6 -->
<g id="edge45" class="edge">
<title>5&#45;&gt;6</title>
<path fill="none" stroke="black" d="M1404.65,-72.76C1400.29,-64.28 1394.85,-53.71 1389.96,-44.2"/>
<polygon fill="black" stroke="black" points="1392.99,-42.44 1385.3,-35.15 1386.77,-45.64 1392.99,-42.44"/>
</g>
<!-- 4 -->
<g id="node47" class="node">
<title>4</title>
<ellipse fill="none" stroke="black" cx="1449" cy="-18" rx="27" ry="18"/>
<text text-anchor="middle" x="1449" y="-14.3" font-family="Times,serif" font-size="14.00">4</text>
</g>
<!-- 5&#45;&gt;4 -->
<g id="edge46" class="edge">
<title>5&#45;&gt;4</title>
<path fill="none" stroke="black" d="M1421.35,-72.76C1425.71,-64.28 1431.15,-53.71 1436.04,-44.2"/>
<polygon fill="black" stroke="black" points="1439.23,-45.64 1440.7,-35.15 1433.01,-42.44 1439.23,-45.64"/>
</g>
<!-- 2 -->
<g id="node49" class="node">
<title>2</title>
<ellipse fill="none" stroke="black" cx="1521" cy="-18" rx="27" ry="18"/>
<text text-anchor="middle" x="1521" y="-14.3" font-family="Times,serif" font-size="14.00">2</text>
</g>
<!-- 1&#45;&gt;2 -->
<g id="edge48" class="edge">
<title>1&#45;&gt;2</title>
<path fill="none" stroke="black" d="M1521,-71.7C1521,-63.98 1521,-54.71 1521,-46.11"/>
<polygon fill="black" stroke="black" points="1524.5,-46.1 1521,-36.1 1517.5,-46.1 1524.5,-46.1"/>
</g>
<!-- 0 -->
<g id="node50" class="node">
<title>0</title>
<ellipse fill="none" stroke="black" cx="1593" cy="-18" rx="27" ry="18"/>
<text text-anchor="middle" x="1593" y="-14.3" font-family="Times,serif" font-size="14.00">0</text>
</g>
<!-- 1&#45;&gt;0 -->
<g id="edge49" class="edge">
<title>1&#45;&gt;0</title>
<path fill="none" stroke="black" d="M1535.57,-74.83C1545.75,-64.94 1559.52,-51.55 1571.03,-40.36"/>
<polygon fill="black" stroke="black" points="1573.47,-42.87 1578.2,-33.38 1568.59,-37.85 1573.47,-42.87"/>
</g>
</g>
</svg>
